<svg width="61" height="55" viewBox="0 0 61 55" fill="none" xmlns="http://www.w3.org/2000/svg">
<path d="M27.0365 1.37683C28.9719 -0.458956 32.0278 -0.458878 33.9633 1.37683L41.0004 8.05261V4.99988C41.0005 3.8954 41.8959 2.99988 43.0004 2.99988H50.0004C51.1047 3.00006 52.0003 3.89551 52.0004 4.99988V18.4891L59.4515 25.5585C62.7024 28.643 60.4938 34.071 55.9877 34.0712H51.5101V50.0546C51.5101 52.7856 49.2699 54.9999 46.5072 54.9999H13.9867C11.224 54.9999 8.98376 52.7856 8.98376 50.0546V34.0712H5.01208C0.506231 34.0708 -1.70237 28.643 1.54822 25.5585L27.0365 1.37683Z" fill="#292929"/>
</svg>
