<svg width="119" height="68" viewBox="0 0 119 68" fill="none" xmlns="http://www.w3.org/2000/svg">
<path d="M119 38.2396V43.2107H105.043V49.8262H116.973V54.7973H105.043V62.254H119V67.2252H99.2301V38.2396H119Z" fill="#1A1A1A"/>
<path d="M75.6952 60.495L67.9709 47.9524V67.2252H62.1584V38.2396H68.7356L77.9896 53.0383L87.2436 38.2396H93.8208V67.2252H88.0084V47.9524L80.284 60.495H75.6952Z" fill="#1A1A1A"/>
<path d="M43.1898 62.4835C48.658 62.4835 52.0613 58.7361 52.0613 52.7324C52.0613 46.7288 48.658 42.9813 43.1898 42.9813C37.7215 42.9813 34.3182 46.7288 34.3182 52.7324C34.3182 58.7361 37.7215 62.4835 43.1898 62.4835ZM43.1898 37.9337C51.7937 37.9337 57.8738 44.0521 57.8738 52.7324C57.8738 61.4128 51.7937 67.5312 43.1898 67.5312C34.5858 67.5312 28.5058 61.4128 28.5058 52.7324C28.5058 44.0521 34.5858 37.9337 43.1898 37.9337Z" fill="#1A1A1A"/>
<path d="M24.166 38.2396V67.2252H18.3536V54.8355H6.65226V67.2252H0.839844V38.2396H6.65226V49.8644H18.3536V38.2396H24.166Z" fill="#1A1A1A"/>
<path d="M82.088 0L92.5274 28.9856H86.3326L83.7323 21.7201H73.2164L70.5397 28.9856H64.3448L75.0519 0H82.088ZM75.0519 16.7489H81.9351L78.57 7.22728L75.0519 16.7489Z" fill="#1A1A1A"/>
<path d="M60.1573 0V28.9856H53.5801L41.3052 9.67462V28.9856H35.4928V0H42.07L54.3449 19.3492V0H60.1573Z" fill="#1A1A1A"/>
<path d="M24.4415 0H30.2539V28.9856H24.4415V0Z" fill="#1A1A1A"/>
<path d="M19.1963 19.7316C19.1963 25.3146 15.0664 29.2533 9.21574 29.2533C5.3153 29.2533 1.52958 26.9589 0 23.6703L5.16235 21.1083C6.00362 22.9438 7.7244 24.2057 9.33046 24.2057C11.7013 24.2057 13.3839 22.3319 13.3839 19.6552V0H19.1963V19.7316Z" fill="#1A1A1A"/>
</svg>
